#!OML:ASF F:\VICON\USERDATA\INSTALL\rory3\rory3.ASF
:FULLY-SPECIFIED
:DEGREES
44
root 0.6361208279238129 17.802127424116552 -15.077930352695093 11.967938598196767 -1.74905079216399 -0.8627511227254135
lfemur -24.93163688825696 6.35981990248983 -19.51812483498104
ltibia 29.25870743924751
lfoot -11.025831608164602 6.776441902639205
ltoes 6.709383308712049
rfemur -30.213249506076288 -2.2974101132307005 19.169087417093056
rtibia 33.1360042120524
rfoot -13.60925630203577 -4.267780488414114
rtoes 11.757475961765879
lowerback 2.7570426964674755 -0.23716239381190068 0.27595386807886135
upperback 5.832668680345683 -0.39034487959745556 1.5340968629829033
thorax 4.068639806801927 -0.2628408133094387 1.8102010632077201
lowerneck -12.99485549817052 1.6774901815685441 -1.200255067272444
upperneck 26.11326306391663 3.0070963318221766 -1.2560533945071053
head 10.771248809729416 1.3576934299767007 -0.0013619232403205839
lclavicle -1.1225444495726917e-17 -8.149009635372039e-16
lhumerus -14.959165847495235 -11.786888432157566 87.5822592452361
lradius 25.544570560922388
lwrist 9.391595816558262
lhand -25.30402746869458 -2.511830677574242
lfingers 7.125019999999999
lthumb 1.7751291366998956 27.547785532204895
rclavicle -1.1072483096427826e-17 -8.1519818593575e-16
rhumerus -21.835726885733617 -11.329445361457843 -81.25666023844826
rradius 28.556620617008882
rwrist 28.559207589001186
rhand -17.836222220932576 -26.451397588239306
rfingers 7.125019999999999
rthumb 8.657262227825669 -56.3363460265885
45
root 0.6364095370990552 17.860347579234677 -15.150842850038092 12.25581473965882 -1.5343437431355833 -0.7206811757052465
lfemur -25.35806236777499 6.355980307220707 -19.692599389084634
ltibia 29.93840182886196
lfoot -10.912748707727369 6.609205880778479
ltoes 6.805183071364954
rfemur -30.80186645292682 -2.391408295818457 18.94246814598763
rtibia 34.14304292401721
rfoot -13.524560916029316 -4.375791170954901
rtoes 11.874939660941838
lowerback 2.9903343960266335 -0.26933819259440633 0.22956586999700923
upperback 5.895663951893179 -0.43298516265516784 1.5156730452857383
thorax 3.9862524307965836 -0.2869434479797834 1.836380821587819
lowerneck -13.037128606929805 1.6240797608552717 -1.2552987642796203
upperneck 25.755571219570196 2.9842569215718227 -1.3217660942742033
head 10.649306666300685 1.3572546045140386 -0.026756220766120165
lclavicle -1.1231497956290113e-17 -8.149116551157318e-16
lhumerus -14.804157545060264 -11.283625342023708 86.78038436758902
lradius 25.474531530836007
lwrist 9.564860477558554
lhand -25.32845481038012 -2.4796942934275807
lfingers 7.125019999999999
lthumb 1.7244580736448807 27.548390924228915
rclavicle -1.1053529209604176e-17 -8.151734960137029e-16
rhumerus -22.61076943544952 -11.575439548514739 -80.95477604091096
rradius 28.407885919813015
rwrist 28.57349038298072
rhand -17.71847474278112 -26.386199320637456
rfingers 7.125019999999999
rthumb 8.82163943112773 -56.26970121187273
46
root 0.6376471374393654 17.926122027700274 -15.225236939197895 12.58958734183627 -1.3392812831641276 -0.5381585452775032
lfemur -25.87442681616762 6.378548060423595 -19.93030047401173
ltibia 30.542286662890312
lfoot -10.738987755592412 6.409900725429326
ltoes 6.912795758605982
rfemur -31.318632892791005 -2.455784489956887 18.63826215308158
rtibia 35.073044279251256
rfoot -13.417075141245384 -4.491637992068061
rtoes 12.026228164455361
lowerback 3.285555852182253 -0.2843368030854634 0.14640240147943584
upperback 5.961199750152814 -0.4517442947475291 1.4877272736878175
thorax 3.8765348674267184 -0.30025892490537875 1.8660765687428198
lowerneck -13.097553656141262 1.5206389027687452 -1.3230822437472027
upperneck 25.369916668612138 2.910633613978589 -1.3990655016058984
head 10.505531712554738 1.3251326212393493 -0.05794455970147927
lclavicle -1.1213452055171534e-17 -8.148954590607961e-16
lhumerus -14.702883449443869 -10.629908266396997 86.02717600230467
lradius 25.318291361000306
lwrist 9.57527217116805
lhand -25.20638894015887 -2.406252659540509
lfingers 7.125019999999999
lthumb 1.809887964199644 27.58120351252463
rclavicle -1.1058321498418023e-17 -8.151798135339738e-16
rhumerus -23.307163622868448 -11.417580087040616 -80.85113664622355
rradius 28.322680613192794
rwrist 28.38479779595506
rhand -17.623431626181286 -26.31958122134859
rfingers 7.125019999999999
rthumb 8.968860310167683 -56.20099600025911
47
root 0.6387992210654063 17.995472959162775 -15.29791412553293 12.961318909882626 -1.0888663717767821 -0.37341497763689724
lfemur -26.54225896001082 6.406478515543198 -20.16696159225204
ltibia 31.146858309960727
lfoot -10.524716370444578 6.153771448816249
ltoes 7.015199425048027
rfemur -31.629261855678557 -2.5151968672243807 18.35112557078507
rtibia 35.78786360787435
rfoot -13.319780693504676 -4.593196069722023
rtoes 12.143977906400645
lowerback 3.626021383019982 -0.31164994683238284 0.09806594675828284
upperback 6.0381656354523185 -0.48566943283437836 1.4742965102422567
thorax 3.763705652421855 -0.3187779574967213 1.8933224516630414
lowerneck -13.175108022148864 1.3647757700861325 -1.3911265329963505
upperneck 24.934421051833343 2.774605357372658 -1.4851895500091468
head 10.348469833745463 1.261727153147128 -0.0925798223706168
lclavicle -1.1140111405965365e-17 -8.148047950598746e-16
lhumerus -14.675151080070078 -9.992511099377717 85.42602099422362
lradius 25.088326117915873
lwrist 9.44566903188835
lhand -24.971425415484376 -2.321225119735904
lfingers 7.125019999999999
lthumb 1.9967214750395725 27.638503177471467
rclavicle -1.1030449430127822e-17 -8.151429014272359e-16
rhumerus -23.868084367045775 -11.028153075682873 -80.87206149165527
rradius 28.22708740451104
rwrist 28.09979969184832
rhand -17.559705983729547 -26.248990765427543
rfingers 7.125019999999999
rthumb 9.086650566749395 -56.124031077843824
48
root 0.6428079933078561 18.06398031402692 -15.357106324874875 13.20462918128672 -0.8359547515729618 -0.25142237070019147
lfemur -27.164236593646606 6.4325163116513 -20.345517174408368
ltibia 31.773784845778383
lfoot -10.307209556948965 5.857482209286088
ltoes 7.0597933429328
rfemur -31.458600921153224 -2.5736812055606317 18.112024342418746
rtibia 36.13633395277496
rfoot -13.261172444822318 -4.66528492261419
rtoes 12.173559797484971
lowerback 4.106386879316605 -0.3314514486566078 0.11166675725621011
upperback 6.197089535160167 -0.5100200675108675 1.482159128847787
thorax 3.6506210102425105 -0.3320798338640702 1.9153070435158446
lowerneck -13.237759420960723 1.1743801789555706 -1.4656666278728343
upperneck 24.464871771858064 2.586737817659268 -1.5679687821080988
head 10.179846551750174 1.167668351105306 -0.12502356402622705
lclavicle -1.1065943839764534e-17 -8.147109315021993e-16
lhumerus -14.736263966745845 -9.296201555032335 84.96415939715808
lradius 24.787337367758493
lwrist 9.214057381123649
lhand -24.683787775514336 -2.232866042941529
lfingers 7.125019999999999
lthumb 2.1825278830524844 27.674758867894457
rclavicle -1.1037437104841534e-17 -8.151520994317698e-16
rhumerus -24.255561005054343 -10.59461196980569 -80.93831092943985
rradius 28.073166017543635
rwrist 27.835004337631492
rhand -17.54361566162121 -26.172688758045915
rfingers 7.125019999999999
rthumb 9.161427119587149 -56.034135127619635
49
root 0.6476210867504257 18.116599091714107 -15.394252972146475 13.250649658831593 -0.5466805591741208 -0.24985775794705678
lfemur -27.780537661109204 6.43828754652416 -20.373570049925892
ltibia 32.517378565836815
lfoot -10.150202444531256 5.541046377146883
ltoes 6.98051185729917
rfemur -30.75934615383913 -2.662269960343405 18.057963447196826
rtibia 36.08423425996327
rfoot -13.3029412938732 -4.70812779501587
rtoes 12.0770881018825
lowerback 4.7010722238076506 -0.3527700264089954 0.2573327337354915
upperback 6.42620654301574 -0.5373570295281892 1.5335701647002393
thorax 3.559872726118955 -0.3438671960851409 1.9260523264297946
lowerneck -13.279065631587025 0.9417929518572636 -1.5543441023248463
upperneck 23.994705989435317 2.3291072359008638 -1.6246708340807583
head 10.008189242602453 1.0365439608799423 -0.14683824880706142
lclavicle -1.1060236259656414e-17 -8.14706002393996e-16
lhumerus -14.899450522158416 -8.654415055512992 84.62580910622823
lradius 24.4308318440769
lwrist 8.868171161016457
lhand -24.365370044113256 -2.139553374216902
lfingers 7.125019999999999
lthumb 2.333860750318074 27.68883585363459
rclavicle -1.1047967906386448e-17 -8.15166103946695e-16
rhumerus -24.433912471119676 -10.267709817901107 -80.99573590302275
rradius 27.82525887114955
rwrist 27.690490537515974
rhand -17.565066297494667 -26.087838859512914
rfingers 7.125019999999999
rthumb 9.205285278033177 -55.9282753345057
50
root 0.6516993773722076 18.139473457605206 -15.422831076188281 13.033102588328351 -0.3858661766205227 -0.3596260993447451
lfemur -28.363418699534975 6.44949445118322 -20.245889991740952
ltibia 33.442254136471036
lfoot -10.14686459611373 5.272646925887521
ltoes 6.690105057972019
rfemur -29.792228256104202 -2.7674632359870706 18.182633093756046
rtibia 35.84430951178462
rfoot -13.517798858699594 -4.686378806077132
rtoes 11.758681324435438
lowerback 5.411681886842762 -0.3256928124656647 0.4852331629171357
upperback 6.736965898681353 -0.4965636688531995 1.6093494474320211
thorax 3.4867663004649674 -0.3242032831958628 1.9273289363203407
lowerneck -13.286978792205032 0.7050332330328031 -1.666728242175051
upperneck 23.538553791837522 2.0333435277627885 -1.608568823152149
head 9.839415056436573 0.8937279936895225 -0.13633170900916824
lclavicle -1.1181429477598879e-17 -8.14867332876606e-16
lhumerus -15.132463687907528 -7.927427789483838 84.33190877592489
lradius 24.067329841470368
lwrist 8.44506363452324
lhand -24.094206736618816 -2.0890696929881747
lfingers 7.125019999999999
lthumb 2.437442590502259 27.672072951953766
rclavicle -1.1048986475840722e-17 -8.151673573489789e-16
rhumerus -24.35906552680104 -10.122095020490292 -81.04977202277571
rradius 27.545876306500304
rwrist 27.73227564121362
rhand -17.644105126614427 -26.010136335223287
rfingers 7.125019999999999
rthumb 9.189679017466666 -55.823676980984295
